<svg width="24" height="24" viewBox="0 0 24 24" fill="none" xmlns="http://www.w3.org/2000/svg">
<path d="M13.2775 7.51038C12.9947 7.17095 12.4902 7.1251 12.1508 7.40795C11.8114 7.6908 11.7655 8.19525 12.0484 8.53467L13.2775 7.51038ZM15.9775 12L16.5921 12.5122C16.8393 12.2155 16.8393 11.7846 16.5921 11.4879L15.9775 12ZM12.0484 15.4654C11.7655 15.8048 11.8114 16.3093 12.1508 16.5921C12.4902 16.875 12.9947 16.8291 13.2775 16.4897L12.0484 15.4654ZM8.02253 11.2C7.5807 11.2 7.22253 11.5582 7.22253 12C7.22253 12.4419 7.5807 12.8 8.02253 12.8L8.02253 11.2ZM12.0484 8.53467L15.363 12.5122L16.5921 11.4879L13.2775 7.51038L12.0484 8.53467ZM15.363 11.4879L12.0484 15.4654L13.2775 16.4897L16.5921 12.5122L15.363 11.4879ZM15.9775 11.2L8.02253 11.2L8.02253 12.8L15.9775 12.8V11.2ZM17.7983 6.20172C21.0006 9.40402 21.0006 14.596 17.7983 17.7983L18.9296 18.9296C22.7568 15.1025 22.7568 8.89749 18.9296 5.07035L17.7983 6.20172ZM17.7983 17.7983C14.596 21.0006 9.40402 21.0006 6.20172 17.7983L5.07035 18.9296C8.89749 22.7568 15.1025 22.7568 18.9296 18.9296L17.7983 17.7983ZM6.20172 17.7983C2.99943 14.596 2.99943 9.40402 6.20172 6.20172L5.07035 5.07035C1.24322 8.89749 1.24322 15.1025 5.07035 18.9296L6.20172 17.7983ZM6.20172 6.20172C9.40402 2.99943 14.596 2.99943 17.7983 6.20172L18.9296 5.07035C15.1025 1.24322 8.89749 1.24322 5.07035 5.07035L6.20172 6.20172Z" fill="black"/>
</svg>
