<svg width="24" height="24" viewBox="0 0 24 24" fill="none" xmlns="http://www.w3.org/2000/svg">
<path d="M9.72866 7.92197C9.28865 7.88197 8.89952 8.20625 8.85952 8.64626C8.81952 9.08627 9.14379 9.4754 9.58381 9.5154L9.72866 7.92197ZM14.8125 9.18744L15.6092 9.11501C15.5743 8.73041 15.2695 8.42569 14.8849 8.39073L14.8125 9.18744ZM14.4846 14.4162C14.5246 14.8562 14.9137 15.1804 15.3537 15.1404C15.7937 15.1004 16.118 14.7113 16.078 14.2713L14.4846 14.4162ZM8.6218 14.2468C8.30938 14.5592 8.30938 15.0657 8.6218 15.3782C8.93421 15.6906 9.44075 15.6906 9.75317 15.3782L8.6218 14.2468ZM9.58381 9.5154L14.7401 9.98416L14.8849 8.39073L9.72866 7.92197L9.58381 9.5154ZM14.0158 9.25987L14.4846 14.4162L16.078 14.2713L15.6092 9.11501L14.0158 9.25987ZM14.2468 8.62176L8.6218 14.2468L9.75317 15.3782L15.3782 9.75313L14.2468 8.62176ZM20.2 12C20.2 16.5287 16.5287 20.2 12 20.2V21.8C17.4124 21.8 21.8 17.4124 21.8 12H20.2ZM12 20.2C7.47126 20.2 3.8 16.5287 3.8 12H2.2C2.2 17.4124 6.58761 21.8 12 21.8V20.2ZM3.8 12C3.8 7.47126 7.47126 3.8 12 3.8V2.2C6.58761 2.2 2.2 6.58761 2.2 12H3.8ZM12 3.8C16.5287 3.8 20.2 7.47126 20.2 12H21.8C21.8 6.58761 17.4124 2.2 12 2.2V3.8Z" fill="black"/>
</svg>
