<svg width="24" height="24" viewBox="0 0 24 24" fill="none" xmlns="http://www.w3.org/2000/svg">
<path d="M7.51032 10.7225C7.1709 11.0053 7.12504 11.5098 7.40789 11.8492C7.69074 12.1886 8.19519 12.2345 8.53462 11.9516L7.51032 10.7225ZM12 8.02247L12.5121 7.40789C12.2154 7.16066 11.7845 7.16066 11.4878 7.40789L12 8.02247ZM15.4653 11.9516C15.8047 12.2345 16.3092 12.1886 16.5921 11.8492C16.8749 11.5098 16.829 11.0053 16.4896 10.7225L15.4653 11.9516ZM11.2 15.9775C11.2 16.4193 11.5581 16.7775 12 16.7775C12.4418 16.7775 12.8 16.4193 12.8 15.9775H11.2ZM8.53462 11.9516L12.5121 8.63704L11.4878 7.40789L7.51032 10.7225L8.53462 11.9516ZM11.4878 8.63704L15.4653 11.9516L16.4896 10.7225L12.5121 7.40789L11.4878 8.63704ZM11.2 8.02247V15.9775H12.8V8.02247H11.2ZM17.7983 6.20172C21.0006 9.40402 21.0006 14.596 17.7983 17.7983L18.9296 18.9296C22.7568 15.1025 22.7568 8.89749 18.9296 5.07035L17.7983 6.20172ZM17.7983 17.7983C14.596 21.0006 9.40402 21.0006 6.20172 17.7983L5.07035 18.9296C8.89749 22.7568 15.1025 22.7568 18.9296 18.9296L17.7983 17.7983ZM6.20172 17.7983C2.99943 14.596 2.99943 9.40402 6.20172 6.20172L5.07035 5.07035C1.24322 8.89749 1.24322 15.1025 5.07035 18.9296L6.20172 17.7983ZM6.20172 6.20172C9.40402 2.99943 14.596 2.99943 17.7983 6.20172L18.9296 5.07035C15.1025 1.24322 8.89749 1.24322 5.07035 5.07035L6.20172 6.20172Z" fill="black"/>
</svg>
