<svg width="24" height="24" viewBox="0 0 24 24" fill="none" xmlns="http://www.w3.org/2000/svg">
<path d="M7.92197 14.2713C7.88197 14.7114 8.20625 15.1005 8.64626 15.1405C9.08627 15.1805 9.4754 14.8562 9.5154 14.4162L7.92197 14.2713ZM9.18744 9.18748L9.11501 8.39077C8.73041 8.42573 8.42569 8.73045 8.39073 9.11505L9.18744 9.18748ZM14.4162 9.51544C14.8562 9.47544 15.1804 9.08631 15.1404 8.6463C15.1004 8.20629 14.7113 7.88201 14.2713 7.92201L14.4162 9.51544ZM14.2468 15.3782C14.5592 15.6906 15.0657 15.6906 15.3782 15.3782C15.6906 15.0658 15.6906 14.5593 15.3782 14.2468L14.2468 15.3782ZM9.5154 14.4162L9.98416 9.25991L8.39073 9.11505L7.92197 14.2713L9.5154 14.4162ZM9.25987 9.98419L14.4162 9.51544L14.2713 7.92201L9.11501 8.39077L9.25987 9.98419ZM8.62176 9.75317L14.2468 15.3782L15.3782 14.2468L9.75313 8.62179L8.62176 9.75317ZM12 3.8C16.5287 3.8 20.2 7.47126 20.2 12H21.8C21.8 6.58761 17.4124 2.2 12 2.2V3.8ZM20.2 12C20.2 16.5287 16.5287 20.2 12 20.2V21.8C17.4124 21.8 21.8 17.4124 21.8 12H20.2ZM12 20.2C7.47126 20.2 3.8 16.5287 3.8 12H2.2C2.2 17.4124 6.58761 21.8 12 21.8V20.2ZM3.8 12C3.8 7.47126 7.47126 3.8 12 3.8V2.2C6.58761 2.2 2.2 6.58761 2.2 12H3.8Z" fill="black"/>
</svg>
