<svg width="24" height="24" viewBox="0 0 24 24" fill="none" xmlns="http://www.w3.org/2000/svg">
<path d="M10.7225 16.4897C11.0053 16.8291 11.5098 16.875 11.8492 16.5921C12.1886 16.3093 12.2345 15.8048 11.9516 15.4654L10.7225 16.4897ZM8.02247 12L7.40789 11.4879C7.16066 11.7846 7.16066 12.2155 7.40789 12.5122L8.02247 12ZM11.9516 8.53467C12.2345 8.19525 12.1886 7.6908 11.8492 7.40795C11.5098 7.1251 11.0053 7.17096 10.7225 7.51038L11.9516 8.53467ZM15.9775 12.8C16.4193 12.8 16.7775 12.4419 16.7775 12C16.7775 11.5582 16.4193 11.2 15.9775 11.2V12.8ZM11.9516 15.4654L8.63704 11.4879L7.40789 12.5122L10.7225 16.4897L11.9516 15.4654ZM8.63704 12.5122L11.9516 8.53467L10.7225 7.51038L7.40789 11.4879L8.63704 12.5122ZM8.02247 12.8H15.9775V11.2H8.02247V12.8ZM6.20172 6.20172C9.40402 2.99943 14.596 2.99943 17.7983 6.20172L18.9296 5.07035C15.1025 1.24322 8.89749 1.24322 5.07035 5.07035L6.20172 6.20172ZM17.7983 6.20172C21.0006 9.40402 21.0006 14.596 17.7983 17.7983L18.9296 18.9296C22.7568 15.1025 22.7568 8.89749 18.9296 5.07035L17.7983 6.20172ZM17.7983 17.7983C14.596 21.0006 9.40402 21.0006 6.20172 17.7983L5.07035 18.9296C8.89749 22.7568 15.1025 22.7568 18.9296 18.9296L17.7983 17.7983ZM6.20172 17.7983C2.99943 14.596 2.99943 9.40402 6.20172 6.20172L5.07035 5.07035C1.24322 8.89749 1.24322 15.1025 5.07035 18.9296L6.20172 17.7983Z" fill="black"/>
</svg>
