<svg width="24" height="24" viewBox="0 0 24 24" fill="none" xmlns="http://www.w3.org/2000/svg">
<path d="M16.4896 13.2775C16.829 12.9947 16.8749 12.4902 16.5921 12.1508C16.3092 11.8114 15.8047 11.7655 15.4653 12.0484L16.4896 13.2775ZM12 15.9775L11.4878 16.5921C11.7845 16.8393 12.2154 16.8393 12.5121 16.5921L12 15.9775ZM8.53462 12.0484C8.1952 11.7655 7.69074 11.8114 7.40789 12.1508C7.12504 12.4902 7.1709 12.9947 7.51032 13.2775L8.53462 12.0484ZM12.8 8.02253C12.8 7.5807 12.4418 7.22253 12 7.22253C11.5581 7.22253 11.2 7.5807 11.2 8.02253H12.8ZM15.4653 12.0484L11.4878 15.363L12.5121 16.5921L16.4896 13.2775L15.4653 12.0484ZM12.5121 15.363L8.53462 12.0484L7.51032 13.2775L11.4878 16.5921L12.5121 15.363ZM12.8 15.9775V8.02253H11.2L11.2 15.9775H12.8ZM17.7983 17.7983C14.596 21.0006 9.40402 21.0006 6.20172 17.7983L5.07035 18.9296C8.89749 22.7568 15.1025 22.7568 18.9296 18.9296L17.7983 17.7983ZM6.20172 17.7983C2.99943 14.596 2.99943 9.40402 6.20172 6.20172L5.07035 5.07035C1.24322 8.89749 1.24322 15.1025 5.07035 18.9296L6.20172 17.7983ZM6.20172 6.20172C9.40402 2.99943 14.596 2.99943 17.7983 6.20172L18.9296 5.07035C15.1025 1.24322 8.89749 1.24322 5.07035 5.07035L6.20172 6.20172ZM17.7983 6.20172C21.0006 9.40402 21.0006 14.596 17.7983 17.7983L18.9296 18.9296C22.7568 15.1025 22.7568 8.89749 18.9296 5.07035L17.7983 6.20172Z" fill="black"/>
</svg>
