<svg width="24" height="24" viewBox="0 0 24 24" fill="none" xmlns="http://www.w3.org/2000/svg">
<path fill-rule="evenodd" clip-rule="evenodd" d="M6.94064 2.43427C7.25306 2.74669 7.25306 3.25322 6.94064 3.56564L4.93132 5.57495H21C21.4418 5.57495 21.7999 5.93312 21.7999 6.37495C21.7999 6.81678 21.4418 7.17495 21 7.17495H4.93132L6.94064 9.18427C7.25306 9.49669 7.25306 10.0032 6.94064 10.3156C6.62822 10.6281 6.12169 10.6281 5.80927 10.3156L2.43427 6.94064C2.12185 6.62822 2.12185 6.12169 2.43427 5.80927L5.80927 2.43427C6.12169 2.12185 6.62822 2.12185 6.94064 2.43427ZM17.0593 13.6843C17.3717 13.3718 17.8782 13.3718 18.1906 13.6843L21.5656 17.0593C21.8781 17.3717 21.8781 17.8782 21.5656 18.1906L18.1906 21.5656C17.8782 21.8781 17.3717 21.8781 17.0593 21.5656C16.7468 21.2532 16.7468 20.7467 17.0593 20.4343L19.0686 18.425H2.99995C2.55812 18.425 2.19995 18.0668 2.19995 17.625C2.19995 17.1831 2.55812 16.825 2.99995 16.825H19.0686L17.0593 14.8156C16.7468 14.5032 16.7468 13.9967 17.0593 13.6843Z" fill="black"/>
</svg>
