<svg width="24" height="24" viewBox="0 0 24 24" fill="none" xmlns="http://www.w3.org/2000/svg">
<path d="M16.6891 11.489C17.0286 11.2062 17.0744 10.7017 16.7916 10.3623C16.5087 10.0229 16.0043 9.97701 15.6649 10.2599L16.6891 11.489ZM12.1995 14.189L11.6874 14.8036C11.984 15.0508 12.415 15.0508 12.7116 14.8036L12.1995 14.189ZM8.73414 10.2599C8.39472 9.97701 7.89027 10.0229 7.60742 10.3623C7.32457 10.7017 7.37043 11.2062 7.70985 11.489L8.73414 10.2599ZM15.6649 10.2599L11.6874 13.5744L12.7116 14.8036L16.6891 11.489L15.6649 10.2599ZM12.7116 13.5744L8.73414 10.2599L7.70985 11.489L11.6874 14.8036L12.7116 13.5744ZM20.2 12C20.2 16.5287 16.5287 20.2 12 20.2V21.8C17.4124 21.8 21.8 17.4124 21.8 12H20.2ZM12 20.2C7.47126 20.2 3.8 16.5287 3.8 12H2.2C2.2 17.4124 6.58761 21.8 12 21.8V20.2ZM3.8 12C3.8 7.47126 7.47126 3.8 12 3.8V2.2C6.58761 2.2 2.2 6.58761 2.2 12H3.8ZM12 3.8C16.5287 3.8 20.2 7.47126 20.2 12H21.8C21.8 6.58761 17.4124 2.2 12 2.2V3.8Z" fill="black"/>
</svg>
