<svg width="24" height="24" viewBox="0 0 24 24" fill="none" xmlns="http://www.w3.org/2000/svg">
<path d="M14.2713 16.078C14.7113 16.118 15.1004 15.7937 15.1404 15.3537C15.1804 14.9137 14.8562 14.5246 14.4162 14.4846L14.2713 16.078ZM9.18744 14.8125L8.39073 14.8849C8.42569 15.2695 8.73041 15.5743 9.11501 15.6092L9.18744 14.8125ZM9.5154 9.58381C9.4754 9.14379 9.08627 8.81952 8.64626 8.85952C8.20625 8.89952 7.88197 9.28865 7.92197 9.72866L9.5154 9.58381ZM15.3782 9.75317C15.6906 9.44075 15.6906 8.93422 15.3782 8.6218C15.0657 8.30938 14.5592 8.30938 14.2468 8.6218L15.3782 9.75317ZM14.4162 14.4846L9.25987 14.0158L9.11501 15.6092L14.2713 16.078L14.4162 14.4846ZM9.98415 14.7401L9.5154 9.58381L7.92197 9.72866L8.39073 14.8849L9.98415 14.7401ZM9.75313 15.3782L15.3782 9.75317L14.2468 8.6218L8.62175 14.2468L9.75313 15.3782ZM12 20.2C7.47126 20.2 3.8 16.5287 3.8 12H2.2C2.2 17.4124 6.58761 21.8 12 21.8V20.2ZM3.8 12C3.8 7.47126 7.47126 3.8 12 3.8V2.2C6.58761 2.2 2.2 6.58761 2.2 12H3.8ZM12 3.8C16.5287 3.8 20.2 7.47126 20.2 12H21.8C21.8 6.58761 17.4124 2.2 12 2.2V3.8ZM20.2 12C20.2 16.5287 16.5287 20.2 12 20.2V21.8C17.4124 21.8 21.8 17.4124 21.8 12H20.2Z" fill="black"/>
</svg>
