<svg width="24" height="24" viewBox="0 0 24 24" fill="none" xmlns="http://www.w3.org/2000/svg">
<path fill-rule="evenodd" clip-rule="evenodd" d="M20.4 20.6C20.8418 20.6 21.2 20.2418 21.2 19.8L21.2 13.514C21.2 10.863 19.051 8.71399 16.4 8.71399L5.53136 8.71399L9.47968 4.76566C9.7921 4.45324 9.7921 3.94671 9.47968 3.63429C9.16727 3.32187 8.66073 3.32187 8.34831 3.63429L3.0343 8.9483C2.72188 9.26072 2.72188 9.76725 3.0343 10.0797L8.34831 15.3937C8.66073 15.7061 9.16726 15.7061 9.47968 15.3937C9.7921 15.0813 9.7921 14.5747 9.47968 14.2623L5.53136 10.314L16.4 10.314C18.1673 10.314 19.6 11.7467 19.6 13.514L19.6 19.8C19.6 20.2418 19.9582 20.6 20.4 20.6Z" fill="black"/>
</svg>
