<svg width="24" height="24" viewBox="0 0 24 24" fill="none" xmlns="http://www.w3.org/2000/svg">
<path d="M14.2065 3.2C13.7647 3.2 13.4065 3.55817 13.4065 4C13.4065 4.44183 13.7647 4.8 14.2065 4.8V3.2ZM20 4H20.8C20.8 3.55817 20.4418 3.2 20 3.2V4ZM19.2 9.79311C19.2 10.2349 19.5582 10.5931 20 10.5931C20.4418 10.5931 20.8 10.2349 20.8 9.79311H19.2ZM13.2409 10.7586L12.6753 10.1929L12.6752 10.193L13.2409 10.7586ZM9.79349 20.8C10.2353 20.8 10.5935 20.4418 10.5935 20C10.5935 19.5582 10.2353 19.2 9.79349 19.2V20.8ZM4 20H3.2C3.2 20.4418 3.55817 20.8 4 20.8V20ZM4.8 14.2069C4.8 13.7651 4.44183 13.4069 4 13.4069C3.55817 13.4069 3.2 13.7651 3.2 14.2069H4.8ZM14.2065 4.8H20V3.2H14.2065V4.8ZM19.2 4V9.79311H20.8V4H19.2ZM19.4343 3.4343L12.6753 10.1929L13.8066 11.3243L20.5657 4.5657L19.4343 3.4343ZM9.79349 19.2H4V20.8H9.79349V19.2ZM4.8 20V14.2069H3.2V20H4.8ZM4.5657 20.5657L13.8066 11.3243L12.6752 10.193L3.4343 19.4343L4.5657 20.5657Z" fill="black"/>
</svg>
