<svg width="24" height="24" viewBox="0 0 24 24" fill="none" xmlns="http://www.w3.org/2000/svg">
<path d="M16.078 9.7287C16.118 9.28869 15.7937 8.89956 15.3537 8.85956C14.9137 8.81956 14.5246 9.14383 14.4846 9.58384L16.078 9.7287ZM14.8125 14.8126L14.8849 15.6093C15.2695 15.5743 15.5743 15.2696 15.6092 14.885L14.8125 14.8126ZM9.58381 14.4846C9.14379 14.5246 8.81952 14.9137 8.85952 15.3537C8.89952 15.7938 9.28865 16.118 9.72866 16.078L9.58381 14.4846ZM9.75317 8.62184C9.44075 8.30942 8.93422 8.30942 8.6218 8.62183C8.30938 8.93425 8.30938 9.44079 8.6218 9.75321L9.75317 8.62184ZM14.4846 9.58384L14.0158 14.7401L15.6092 14.885L16.078 9.7287L14.4846 9.58384ZM14.7401 14.0158L9.58381 14.4846L9.72866 16.078L14.8849 15.6093L14.7401 14.0158ZM15.3782 14.2469L9.75317 8.62184L8.6218 9.75321L14.2468 15.3782L15.3782 14.2469ZM20.2 12C20.2 16.5287 16.5287 20.2 12 20.2V21.8C17.4124 21.8 21.8 17.4124 21.8 12H20.2ZM12 20.2C7.47126 20.2 3.8 16.5287 3.8 12H2.2C2.2 17.4124 6.58761 21.8 12 21.8V20.2ZM3.8 12C3.8 7.47126 7.47126 3.8 12 3.8V2.2C6.58761 2.2 2.2 6.58761 2.2 12H3.8ZM12 3.8C16.5287 3.8 20.2 7.47126 20.2 12H21.8C21.8 6.58761 17.4124 2.2 12 2.2V3.8Z" fill="black"/>
</svg>
