<svg width="24" height="24" viewBox="0 0 24 24" fill="none" xmlns="http://www.w3.org/2000/svg">
<path d="M12.4495 16.2892C12.7323 16.6287 13.2368 16.6745 13.5762 16.3917C13.9156 16.1088 13.9615 15.6044 13.6786 15.265L12.4495 16.2892ZM9.74945 11.7996L9.13487 11.2874C8.88764 11.5841 8.88764 12.0151 9.13487 12.3117L9.74945 11.7996ZM13.6786 8.33424C13.9615 7.99482 13.9156 7.49037 13.5762 7.20752C13.2368 6.92466 12.7323 6.97052 12.4495 7.30995L13.6786 8.33424ZM13.6786 15.265L10.364 11.2874L9.13487 12.3117L12.4495 16.2892L13.6786 15.265ZM10.364 12.3117L13.6786 8.33424L12.4495 7.30995L9.13487 11.2874L10.364 12.3117ZM12 3.8C16.5287 3.8 20.2 7.47126 20.2 12H21.8C21.8 6.58761 17.4124 2.2 12 2.2V3.8ZM20.2 12C20.2 16.5287 16.5287 20.2 12 20.2V21.8C17.4124 21.8 21.8 17.4124 21.8 12H20.2ZM12 20.2C7.47126 20.2 3.8 16.5287 3.8 12H2.2C2.2 17.4124 6.58761 21.8 12 21.8V20.2ZM3.8 12C3.8 7.47126 7.47126 3.8 12 3.8V2.2C6.58761 2.2 2.2 6.58761 2.2 12H3.8Z" fill="black"/>
</svg>
