<svg width="24" height="24" viewBox="0 0 24 24" fill="none" xmlns="http://www.w3.org/2000/svg">
<path d="M5.57523 3C5.57523 2.55817 5.9332 2.2002 6.37503 2.2002C6.78916 2.2002 7.12985 2.51467 7.17093 2.91797L7.17483 3V19.0693L9.1846 17.0596C9.49702 16.7472 10.003 16.7472 10.3155 17.0596C10.6279 17.372 10.6279 17.878 10.3155 18.1904L6.94046 21.5654C6.62804 21.8778 6.12202 21.8778 5.8096 21.5654L2.4346 18.1904L2.37991 18.1299C2.12345 17.8157 2.14164 17.3525 2.4346 17.0596C2.72756 16.7666 3.19069 16.7484 3.50491 17.0049L3.56546 17.0596L5.57523 19.0693V3ZM16.8252 21V4.93066L14.8155 6.94043C14.503 7.25285 13.997 7.25285 13.6846 6.94043C13.3722 6.62801 13.3722 6.12199 13.6846 5.80957L17.0596 2.43457L17.1182 2.38086C17.2605 2.26435 17.4395 2.2002 17.625 2.2002C17.8372 2.2002 18.0404 2.28454 18.1905 2.43457L21.5655 5.80957L21.6201 5.87012C21.8766 6.18434 21.8584 6.64747 21.5655 6.94043C21.2725 7.23339 20.8094 7.25158 20.4951 6.99512L20.4346 6.94043L18.4248 4.93066V21L18.4209 21.082C18.3799 21.4853 18.0392 21.7998 17.625 21.7998C17.2109 21.7998 16.8702 21.4853 16.8291 21.082L16.8252 21Z" fill="#606876"/>
</svg>
