<svg width="24" height="24" viewBox="0 0 24 24" fill="none" xmlns="http://www.w3.org/2000/svg">
<path d="M7.71075 12.4495C7.37133 12.7323 7.32547 13.2368 7.60832 13.5762C7.89117 13.9156 8.39563 13.9615 8.73505 13.6786L7.71075 12.4495ZM12.2004 9.74945L12.7126 9.13487C12.4159 8.88764 11.9849 8.88764 11.6883 9.13487L12.2004 9.74945ZM15.6658 13.6786C16.0052 13.9615 16.5096 13.9156 16.7925 13.5762C17.0753 13.2368 17.0295 12.7323 16.6901 12.4495L15.6658 13.6786ZM8.73505 13.6786L12.7126 10.364L11.6883 9.13487L7.71075 12.4495L8.73505 13.6786ZM11.6883 10.364L15.6658 13.6786L16.6901 12.4495L12.7126 9.13487L11.6883 10.364ZM20.2 12C20.2 16.5287 16.5287 20.2 12 20.2V21.8C17.4124 21.8 21.8 17.4124 21.8 12H20.2ZM12 20.2C7.47126 20.2 3.8 16.5287 3.8 12H2.2C2.2 17.4124 6.58761 21.8 12 21.8V20.2ZM3.8 12C3.8 7.47126 7.47126 3.8 12 3.8V2.2C6.58761 2.2 2.2 6.58761 2.2 12H3.8ZM12 3.8C16.5287 3.8 20.2 7.47126 20.2 12H21.8C21.8 6.58761 17.4124 2.2 12 2.2V3.8Z" fill="black"/>
</svg>
