<svg width="20" height="21" viewBox="0 0 20 21" fill="none" xmlns="http://www.w3.org/2000/svg">
<path d="M16.9452 13.0282C17.2055 12.7678 17.628 12.7679 17.8884 13.0282C18.1487 13.2885 18.1487 13.711 17.8884 13.9714L13.8885 17.9712C13.7635 18.0962 13.5933 18.1665 13.4165 18.1665C13.2619 18.1664 13.1127 18.1131 12.9942 18.0159L12.9453 17.9712L11.1118 16.1377C10.8519 15.8774 10.8517 15.4556 11.1118 15.1953C11.3722 14.935 11.7947 14.935 12.055 15.1953L13.4165 16.5568L16.9452 13.0282ZM9.08384 11.8335C9.45188 11.8337 9.75035 12.1319 9.75035 12.5C9.75035 12.8681 9.45188 13.1663 9.08384 13.1665H6.08335C5.71523 13.1664 5.41685 12.8681 5.41685 12.5C5.41685 12.1319 5.71523 11.8336 6.08335 11.8335H9.08384ZM14.9172 10V4.50033C14.9172 3.76395 14.3197 3.1665 13.5834 3.1665H4.58352C3.84714 3.1665 3.2497 3.76395 3.24969 4.50033V16.4998C3.24969 17.2362 3.84714 17.8337 4.58352 17.8337H8.58335C8.95147 17.8337 9.24986 18.132 9.24986 18.5002C9.24974 18.8682 8.9514 19.1666 8.58335 19.1667H4.58352C3.11075 19.1667 1.91668 17.9726 1.91669 16.4998V4.50033C1.9167 3.02757 3.11076 1.8335 4.58352 1.8335H13.5834C15.0561 1.8335 16.2502 3.02757 16.2502 4.50033V10C16.2502 10.3681 15.9518 10.6664 15.5837 10.6665C15.2155 10.6665 14.9172 10.3682 14.9172 10ZM12.0835 8.83301C12.4517 8.83301 12.75 9.13214 12.75 9.50033C12.7498 9.86836 12.4516 10.1668 12.0835 10.1668H6.08335C5.71534 10.1667 5.41703 9.86832 5.41685 9.50033C5.41685 9.13219 5.71523 8.83309 6.08335 8.83301H12.0835ZM12.0835 5.83333C12.4516 5.83334 12.7499 6.13173 12.75 6.49984C12.75 6.86802 12.4517 7.16633 12.0835 7.16634H6.08335C5.71523 7.16626 5.41685 6.86798 5.41685 6.49984C5.41694 6.13177 5.71529 5.83341 6.08335 5.83333H12.0835Z" fill="#606876"/>
</svg>
