<svg width="23" height="22" viewBox="0 0 23 22" fill="none" xmlns="http://www.w3.org/2000/svg">
<path fill-rule="evenodd" clip-rule="evenodd" d="M13.0366 3.95658C12.6447 2.34781 10.3553 2.34781 9.96339 3.95658C9.90488 4.19833 9.79012 4.42284 9.62845 4.61186C9.46678 4.80088 9.26277 4.94905 9.03301 5.04433C8.80326 5.13961 8.55425 5.17929 8.30626 5.16016C8.05827 5.14103 7.8183 5.06361 7.60588 4.93422C6.19096 4.07208 4.57185 5.69117 5.434 7.10607C5.99089 8.01977 5.49691 9.21191 4.45737 9.46457C2.84754 9.85542 2.84754 12.1459 4.45737 12.5357C4.69919 12.5943 4.92375 12.7091 5.11277 12.8709C5.30178 13.0327 5.44992 13.2369 5.54511 13.4667C5.6403 13.6966 5.67985 13.9457 5.66054 14.1938C5.64123 14.4418 5.56361 14.6818 5.434 14.8942C4.57185 16.3091 6.19096 17.9282 7.60588 17.066C7.81826 16.9364 8.05825 16.8588 8.30631 16.8395C8.55437 16.8202 8.80348 16.8597 9.03336 16.9549C9.26324 17.0501 9.46739 17.1982 9.62918 17.3873C9.79097 17.5763 9.90584 17.8008 9.96442 18.0426C10.3553 19.6525 12.6458 19.6525 13.0356 18.0426C13.0944 17.801 13.2093 17.5766 13.3712 17.3877C13.533 17.1988 13.7371 17.0507 13.9669 16.9556C14.1967 16.8604 14.4457 16.8208 14.6937 16.84C14.9417 16.8592 15.1817 16.9367 15.3941 17.066C16.809 17.9282 18.4282 16.3091 17.566 14.8942C17.4366 14.6818 17.3592 14.4418 17.34 14.1938C17.3208 13.9458 17.3604 13.6968 17.4556 13.467C17.5507 13.2372 17.6988 13.0331 17.8876 12.8713C18.0765 12.7094 18.3009 12.5945 18.5426 12.5357C20.1525 12.1448 20.1525 9.85439 18.5426 9.46457C18.3008 9.40599 18.0763 9.29113 17.8872 9.12934C17.6982 8.96755 17.5501 8.7634 17.4549 8.53353C17.3597 8.30365 17.3202 8.05454 17.3395 7.80649C17.3588 7.55843 17.4364 7.31845 17.566 7.10607C18.4282 5.69117 16.809 4.07208 15.3941 4.93422C15.1817 5.06383 14.9417 5.14145 14.6937 5.16076C14.4456 5.18007 14.1965 5.14052 13.9666 5.04533C13.7368 4.95014 13.5326 4.80201 13.3708 4.61299C13.209 4.42398 13.0942 4.19942 13.0356 3.95761L13.0366 3.95658Z" stroke="#606876" stroke-width="1.4"/>
<path d="M13.3333 11C13.3333 12.0125 12.5125 12.8333 11.5 12.8333C10.4875 12.8333 9.66667 12.0125 9.66667 11C9.66667 9.98748 10.4875 9.16667 11.5 9.16667C12.5125 9.16667 13.3333 9.98748 13.3333 11Z" stroke="#606876" stroke-width="1.4"/>
</svg>
